<svg width="128" height="49" viewBox="0 0 128 49" fill="none" xmlns="http://www.w3.org/2000/svg">
<g opacity="0.41">
<path d="M25.5657 19.0476V3.06055H32.0349C33.6523 3.06055 34.9339 3.52892 35.9104 4.43444C36.8564 5.33995 37.3446 6.55772 37.3446 8.08773C37.3446 9.61775 36.8564 10.8355 35.9104 11.741C34.9644 12.6465 33.6523 13.1149 32.0349 13.1149H29.0749V19.0476H25.5657ZM29.0749 9.99244H31.6688C32.3401 9.99244 32.8589 9.83632 33.2556 9.49285C33.6217 9.14938 33.8353 8.681 33.8353 8.08773C33.8353 7.49446 33.6523 7.02609 33.2556 6.68262C32.8894 6.33915 32.3401 6.18302 31.6688 6.18302H29.0749V9.99244Z" fill="white"/>
<path d="M42.3493 7.37109C43.9361 7.37109 45.1872 7.77702 46.1026 8.62008C47.0181 9.46315 47.4758 10.6497 47.4758 12.2422V19.0492H44.3022V17.5816C43.9666 18.0812 43.5088 18.4871 42.929 18.7681C42.3493 19.0804 41.7389 19.2053 41.1286 19.2053C40.0301 19.2053 39.1451 18.893 38.4433 18.2373C37.7414 17.5816 37.4058 16.7697 37.4058 15.8018C37.4058 13.5848 39.0231 12.3046 42.2577 11.9299L44.3022 11.7113V11.6489C44.3022 11.0868 44.1191 10.6497 43.7835 10.3062C43.4478 9.99397 42.9596 9.80662 42.3493 9.80662C41.8 9.80662 41.3728 9.96275 41.0066 10.275C40.6404 10.5872 40.4268 11.0244 40.3963 11.5864L37.5278 11.0244C37.7109 9.9003 38.2602 9.02601 39.1451 8.33906C40.0606 7.71457 41.1286 7.37109 42.3493 7.37109ZM41.9526 16.8322C42.6544 16.8322 43.2342 16.5824 43.6614 16.0828C44.0886 15.5832 44.3022 14.9899 44.3328 14.2718V14.2405V14.1781V14.0844L42.2272 14.3342C41.6779 14.3967 41.2812 14.5528 40.9761 14.8026C40.6709 15.0524 40.5488 15.3334 40.5488 15.7081C40.5488 16.0516 40.6709 16.3014 40.915 16.5199C41.1592 16.7385 41.5253 16.8322 41.9526 16.8322Z" fill="white"/>
<path d="M56.2948 7.55469H59.6515L53.7315 23.1983H50.3748L52.1447 18.4834L47.8115 7.55469H51.3513L53.762 14.2368L56.2948 7.55469Z" fill="white"/>
<path d="M67.6772 19.2348C65.5411 19.2348 63.7102 18.5167 62.2149 17.0803C60.7197 15.644 59.9873 13.6456 59.9873 11.0539C59.9873 8.46228 60.7502 6.46389 62.3065 5.02756C63.8628 3.59122 65.7242 2.87305 67.9518 2.87305C69.9048 2.87305 71.5221 3.34142 72.7733 4.30939C74.0549 5.27735 74.8178 6.62002 75.1229 8.30616L71.6442 9.02432C71.4611 8.08758 71.0339 7.33819 70.3625 6.77614C69.6912 6.2141 68.8673 5.93307 67.8908 5.93307C66.5786 5.93307 65.5106 6.40144 64.6867 7.30696C63.8933 8.21248 63.4966 9.46147 63.4966 11.0539C63.4966 12.6464 63.8933 13.8642 64.6867 14.7697C65.4801 15.6752 66.5481 16.1123 67.8298 16.1123C68.8673 16.1123 69.7217 15.8313 70.3931 15.3005C71.0644 14.7697 71.4611 14.0827 71.5832 13.2084H67.3415V10.3358H74.8483V19.0475H71.6442V17.3926C71.3085 17.9546 70.7898 18.3918 70.0574 18.7352C69.325 19.0787 68.5316 19.2348 67.6772 19.2348Z" fill="white"/>
<path d="M76.8315 19.0475V2.9043H80.0967V19.0475H76.8315Z" fill="white"/>
<path d="M87.4818 19.2365C85.7424 19.2365 84.3082 18.6745 83.2096 17.5504C82.111 16.4263 81.5618 15.0212 81.5618 13.3038C81.5618 11.5864 82.111 10.1501 83.2096 9.05723C84.3082 7.93314 85.7424 7.37109 87.4818 7.37109C89.1906 7.37109 90.5943 7.93314 91.7234 9.05723C92.8525 10.1813 93.4017 11.5864 93.4017 13.3038C93.4017 15.0212 92.8525 16.4575 91.7234 17.5504C90.5943 18.6745 89.1906 19.2365 87.4818 19.2365ZM87.4818 16.395C88.2752 16.395 88.916 16.114 89.4042 15.552C89.8925 14.9899 90.1366 14.2405 90.1366 13.335C90.1366 12.4295 89.8925 11.6801 89.4042 11.1181C88.916 10.556 88.2752 10.275 87.4818 10.275C86.6884 10.275 86.017 10.556 85.5288 11.1181C85.0405 11.6801 84.7964 12.4295 84.7964 13.335C84.7964 14.2405 85.0405 14.9899 85.5288 15.552C86.017 16.114 86.6578 16.395 87.4818 16.395Z" fill="white"/>
<path d="M100.024 19.2365C98.3147 19.2365 96.9415 18.6745 95.8734 17.5816C94.8054 16.4887 94.2561 15.0524 94.2561 13.3038C94.2561 11.5552 94.8054 10.1189 95.8734 9.02601C96.9415 7.93314 98.3147 7.37109 100.024 7.37109C101.519 7.37109 102.77 7.74579 103.746 8.46396C104.723 9.18213 105.303 10.1813 105.486 11.4615L102.312 12.086C102.221 11.4928 101.976 11.0556 101.61 10.7121C101.214 10.3687 100.725 10.2125 100.146 10.2125C99.3827 10.2125 98.7724 10.4936 98.3147 11.0556C97.8569 11.6177 97.6433 12.3671 97.6433 13.3038C97.6433 14.2405 97.8874 14.9899 98.3452 15.552C98.8029 16.114 99.4132 16.395 100.176 16.395C101.336 16.395 102.038 15.8018 102.282 14.6465L105.486 15.3022C105.272 16.5199 104.692 17.4879 103.716 18.1749C102.739 18.893 101.488 19.2365 100.024 19.2365Z" fill="white"/>
<path d="M111.283 7.37109C112.87 7.37109 114.121 7.77702 115.037 8.62008C115.952 9.46315 116.41 10.6497 116.41 12.2422V19.0492H113.236V17.5816C112.901 18.0812 112.443 18.4871 111.863 18.7681C111.283 19.0804 110.673 19.2053 110.063 19.2053C108.964 19.2053 108.079 18.893 107.377 18.2373C106.676 17.5816 106.34 16.7697 106.34 15.8018C106.34 13.5848 107.957 12.3046 111.192 11.9299L113.236 11.7113V11.6489C113.236 11.0868 113.053 10.6497 112.718 10.3062C112.382 9.99397 111.894 9.80662 111.283 9.80662C110.734 9.80662 110.307 9.96275 109.941 10.275C109.574 10.5872 109.361 11.0244 109.33 11.5864L106.462 11.0244C106.645 9.9003 107.194 9.02601 108.079 8.33906C108.995 7.71457 110.063 7.37109 111.283 7.37109ZM110.887 16.8322C111.588 16.8322 112.168 16.5824 112.595 16.0828C113.023 15.5832 113.236 14.9899 113.267 14.2718V14.2405V14.1781V14.0844L111.161 14.3342C110.612 14.3967 110.215 14.5528 109.91 14.8026C109.605 15.0524 109.483 15.3334 109.483 15.7081C109.483 16.0516 109.605 16.3014 109.849 16.5199C110.093 16.7385 110.429 16.8322 110.887 16.8322Z" fill="white"/>
<path d="M118.393 19.0475V2.9043H121.658V19.0475H118.393Z" fill="white"/>
<path d="M124.161 5.02745V3.06029H123.459V2.74805H125.198V3.09152H124.527V5.05868H124.161V5.02745Z" fill="white"/>
<path d="M125.412 5.02745V2.74805H125.839L126.541 4.49663L127.243 2.74805H127.67V5.02745H127.304V3.46622L126.663 5.02745H126.358L125.717 3.46622V5.02745H125.412Z" fill="white"/>
<path d="M18.7919 4.37147L12.2006 0.468371C11.1325 -0.156124 9.78985 -0.156124 8.69129 0.468371L2.06946 4.37147C1.00142 5.02719 0.330078 6.21373 0.330078 7.49394V15.3001C0.330078 16.5803 1.00142 17.7669 2.06946 18.4226L8.69129 22.3257C9.24057 22.638 9.85088 22.7941 10.4307 22.7941C11.041 22.7941 11.6513 22.638 12.17 22.3257L18.7919 18.4226C19.8599 17.7981 20.5313 16.5803 20.5313 15.3001V7.49394C20.5618 6.21373 19.8904 5.02719 18.7919 4.37147ZM17.1746 15.4875L10.5527 19.3906C10.4917 19.4218 10.4002 19.4218 10.3391 19.3906L3.71729 15.4875C3.65626 15.4563 3.59522 15.3626 3.59522 15.3001V7.49394C3.59522 7.40027 3.62574 7.33782 3.71729 7.30659L10.3391 3.4035C10.3696 3.37227 10.4002 3.37227 10.4612 3.37227C10.4917 3.37227 10.5527 3.37227 10.5832 3.4035L17.2051 7.30659C17.2661 7.33782 17.3271 7.43149 17.3271 7.49394V9.7109H10.3696C9.45418 9.7109 8.72181 10.4603 8.72181 11.397C8.72181 12.3338 9.45418 13.0832 10.3696 13.0832H17.2661V15.3001C17.2661 15.3938 17.2356 15.4563 17.1746 15.4875Z" fill="white"/>
</g>
<line x1="7" y1="29.6992" x2="121" y2="29.6992" stroke="#858E9E" stroke-linecap="round"/>
<path d="M20.9016 45.1992V36.4719H23.7184C24.3377 36.4719 24.8547 36.5913 25.2695 36.8299C25.6871 37.0657 26.001 37.3867 26.2113 37.793C26.4243 38.1992 26.5309 38.6566 26.5309 39.1651C26.5309 39.6737 26.4257 40.1325 26.2155 40.5415C26.0053 40.9478 25.6928 41.2702 25.278 41.5089C24.8632 41.7447 24.3476 41.8626 23.7311 41.8626H21.5152V41.1467H23.7098C24.1672 41.1467 24.5465 41.0614 24.8476 40.891C25.1488 40.7177 25.3732 40.4819 25.5209 40.1836C25.6715 39.8853 25.7468 39.5458 25.7468 39.1651C25.7468 38.7844 25.6715 38.445 25.5209 38.1467C25.3732 37.8484 25.1473 37.614 24.8434 37.4435C24.5422 37.2731 24.1601 37.1879 23.697 37.1879H21.6985V45.1992H20.9016ZM29.832 45.3484C29.4372 45.3484 29.0764 45.2717 28.7497 45.1183C28.423 44.962 28.163 44.7376 27.9698 44.445C27.7766 44.1495 27.6801 43.7915 27.6801 43.3711C27.6801 43.0472 27.7411 42.7745 27.8633 42.5529C27.9855 42.3313 28.1588 42.1495 28.3832 42.0075C28.6076 41.8654 28.8732 41.7532 29.1801 41.6708C29.4869 41.5884 29.8249 41.5245 30.1943 41.479C30.5607 41.4336 30.8704 41.3938 31.1232 41.3597C31.3789 41.3256 31.5735 41.2717 31.707 41.1978C31.8406 41.1239 31.9073 41.0046 31.9073 40.8398V40.6864C31.9073 40.2404 31.7738 39.8896 31.5068 39.6339C31.2426 39.3754 30.8619 39.2461 30.3647 39.2461C29.8931 39.2461 29.5082 39.3498 29.2099 39.5572C28.9144 39.7646 28.707 40.0089 28.5877 40.2901L27.8676 40.0302C28.0153 39.6722 28.2198 39.3867 28.4812 39.1737C28.7426 38.9577 29.0352 38.8029 29.359 38.7092C29.6829 38.6126 30.011 38.5643 30.3434 38.5643C30.5934 38.5643 30.8534 38.5969 31.1232 38.6623C31.396 38.7276 31.6488 38.8413 31.8818 39.0032C32.1147 39.1623 32.3036 39.3853 32.4485 39.6722C32.5934 39.9563 32.6659 40.3171 32.6659 40.7546V45.1992H31.9073V44.1637H31.8605C31.7695 44.3569 31.6346 44.5444 31.4556 44.7262C31.2766 44.908 31.0522 45.0572 30.7823 45.1737C30.5124 45.2901 30.1957 45.3484 29.832 45.3484ZM29.9343 44.6538C30.3377 44.6538 30.6872 44.5643 30.9826 44.3853C31.2781 44.2063 31.5053 43.9691 31.6644 43.6737C31.8264 43.3754 31.9073 43.0472 31.9073 42.6893V41.7433C31.8505 41.7972 31.7553 41.8455 31.6218 41.8881C31.4911 41.9308 31.3391 41.9691 31.1659 42.0032C30.9954 42.0344 30.8249 42.0614 30.6545 42.0842C30.484 42.1069 30.3306 42.1268 30.1943 42.1438C29.8249 42.1893 29.5096 42.2603 29.2482 42.3569C28.9869 42.4535 28.7866 42.587 28.6474 42.7575C28.5082 42.9251 28.4386 43.141 28.4386 43.4052C28.4386 43.8029 28.5806 44.1112 28.8647 44.3299C29.1488 44.5458 29.5053 44.6538 29.9343 44.6538ZM34.4436 45.1992V38.6538H35.1808V39.6594H35.2362C35.3669 39.3299 35.5942 39.0643 35.918 38.8626C36.2447 38.658 36.6141 38.5558 37.026 38.5558C37.0885 38.5558 37.1581 38.5572 37.2348 38.56C37.3115 38.5629 37.3754 38.5657 37.4266 38.5685V39.3398C37.3925 39.3342 37.3328 39.3256 37.2476 39.3143C37.1624 39.3029 37.07 39.2972 36.9706 39.2972C36.6297 39.2972 36.3257 39.3697 36.0587 39.5146C35.7945 39.6566 35.5857 39.854 35.4322 40.1069C35.2788 40.3597 35.2021 40.6481 35.2021 40.9719V45.1992H34.4436ZM41.4692 38.6538V39.3143H38.3457V38.6538H41.4692ZM39.3215 37.0856H40.0843V43.4904C40.0843 43.7631 40.1312 43.9776 40.2249 44.1339C40.3187 44.2873 40.4408 44.3967 40.5914 44.462C40.742 44.5245 40.9025 44.5558 41.0729 44.5558C41.1724 44.5558 41.2576 44.5501 41.3286 44.5387C41.3996 44.5245 41.4621 44.5103 41.5161 44.4961L41.678 45.1822C41.6042 45.2106 41.5133 45.2362 41.4053 45.2589C41.2974 45.2844 41.1638 45.2972 41.0047 45.2972C40.7263 45.2972 40.4579 45.2362 40.1993 45.114C39.9437 44.9918 39.7334 44.81 39.5687 44.5685C39.4039 44.3271 39.3215 44.0273 39.3215 43.6694V37.0856ZM43.7104 41.1083V45.1992H42.9519V38.6538H43.6891V39.6808H43.7573C43.9107 39.3455 44.1493 39.0771 44.4732 38.8754C44.7999 38.6708 45.2033 38.5685 45.6834 38.5685C46.1238 38.5685 46.5101 38.6609 46.8425 38.8455C47.1777 39.0273 47.4377 39.2958 47.6223 39.6509C47.8098 40.006 47.9036 40.4421 47.9036 40.9592V45.1992H47.1451V41.006C47.1451 40.4691 46.9945 40.0444 46.6934 39.7319C46.3951 39.4194 45.9945 39.2631 45.4917 39.2631C45.1479 39.2631 44.8425 39.337 44.5755 39.4847C44.3084 39.6325 44.0968 39.8455 43.9405 40.1239C43.7871 40.3995 43.7104 40.7276 43.7104 41.1083ZM52.3074 45.3356C51.6966 45.3356 51.1682 45.1935 50.7222 44.9094C50.2762 44.6225 49.931 44.2262 49.6867 43.7205C49.4452 43.212 49.3245 42.6268 49.3245 41.9648C49.3245 41.3058 49.4452 40.7205 49.6867 40.2092C49.931 39.695 50.2676 39.293 50.6966 39.0032C51.1284 38.7106 51.627 38.5643 52.1924 38.5643C52.5475 38.5643 52.8898 38.6296 53.2193 38.7603C53.5489 38.8881 53.8443 39.0856 54.1057 39.3526C54.3699 39.6168 54.5787 39.9506 54.7321 40.354C54.8855 40.7546 54.9622 41.229 54.9622 41.7773V42.1523H49.8486V41.4833H54.1867C54.1867 41.0629 54.1014 40.685 53.931 40.3498C53.7634 40.0117 53.529 39.7447 53.2279 39.5487C52.9296 39.3526 52.5844 39.2546 52.1924 39.2546C51.7776 39.2546 51.4125 39.3654 51.0972 39.587C50.7818 39.8086 50.5347 40.1012 50.3557 40.4648C50.1796 40.8285 50.0901 41.2262 50.0872 41.658V42.0586C50.0872 42.5785 50.1767 43.033 50.3557 43.4222C50.5375 43.8086 50.7946 44.1083 51.127 44.3214C51.4594 44.5344 51.8529 44.641 52.3074 44.641C52.6171 44.641 52.8884 44.5927 53.1213 44.4961C53.3571 44.3995 53.5546 44.2702 53.7137 44.1083C53.8756 43.9435 53.9978 43.7631 54.0801 43.5671L54.8003 43.8015C54.7009 44.0771 54.5375 44.3313 54.3103 44.5643C54.0858 44.7972 53.8046 44.9847 53.4665 45.1268C53.1313 45.266 52.7449 45.3356 52.3074 45.3356ZM56.3938 45.1992V38.6538H57.131V39.6594H57.1864C57.3171 39.3299 57.5443 39.0643 57.8682 38.8626C58.1949 38.658 58.5642 38.5558 58.9762 38.5558C59.0387 38.5558 59.1083 38.5572 59.185 38.56C59.2617 38.5629 59.3256 38.5657 59.3767 38.5685V39.3398C59.3426 39.3342 59.283 39.3256 59.1977 39.3143C59.1125 39.3029 59.0202 39.2972 58.9208 39.2972C58.5798 39.2972 58.2759 39.3697 58.0088 39.5146C57.7446 39.6566 57.5358 39.854 57.3824 40.1069C57.229 40.3597 57.1523 40.6481 57.1523 40.9719V45.1992H56.3938ZM63.7238 45.1992V36.4719H66.5405C67.1599 36.4719 67.6769 36.5913 68.0917 36.8299C68.5093 37.0657 68.8232 37.3867 69.0334 37.793C69.2465 38.1992 69.353 38.6566 69.353 39.1651C69.353 39.6737 69.2479 40.1325 69.0377 40.5415C68.8275 40.9478 68.515 41.2702 68.1002 41.5089C67.6854 41.7447 67.1698 41.8626 66.5533 41.8626H64.3374V41.1467H66.532C66.9894 41.1467 67.3687 41.0614 67.6698 40.891C67.9709 40.7177 68.1954 40.4819 68.3431 40.1836C68.4937 39.8853 68.569 39.5458 68.569 39.1651C68.569 38.7844 68.4937 38.445 68.3431 38.1467C68.1954 37.8484 67.9695 37.614 67.6655 37.4435C67.3644 37.2731 66.9823 37.1879 66.5192 37.1879H64.5207V45.1992H63.7238ZM70.8261 45.1992V38.6538H71.5633V39.6594H71.6187C71.7494 39.3299 71.9767 39.0643 72.3005 38.8626C72.6272 38.658 72.9966 38.5558 73.4085 38.5558C73.471 38.5558 73.5406 38.5572 73.6173 38.56C73.694 38.5629 73.7579 38.5657 73.8091 38.5685V39.3398C73.775 39.3342 73.7153 39.3256 73.6301 39.3143C73.5449 39.3029 73.4525 39.2972 73.3531 39.2972C73.0122 39.2972 72.7082 39.3697 72.4412 39.5146C72.177 39.6566 71.9682 39.854 71.8147 40.1069C71.6613 40.3597 71.5846 40.6481 71.5846 40.9719V45.1992H70.8261ZM77.2083 45.3356C76.6429 45.3356 76.1429 45.1921 75.7083 44.9052C75.2764 44.6183 74.9384 44.2219 74.6941 43.7163C74.4497 43.2077 74.3276 42.6211 74.3276 41.9563C74.3276 41.2859 74.4497 40.6964 74.6941 40.1879C74.9384 39.6765 75.2764 39.2788 75.7083 38.9947C76.1429 38.7077 76.6429 38.5643 77.2083 38.5643C77.7736 38.5643 78.2722 38.7077 78.704 38.9947C79.1358 39.2816 79.4739 39.6793 79.7182 40.1879C79.9654 40.6964 80.0889 41.2859 80.0889 41.9563C80.0889 42.6211 79.9668 43.2077 79.7225 43.7163C79.4782 44.2219 79.1387 44.6183 78.704 44.9052C78.2722 45.1921 77.7736 45.3356 77.2083 45.3356ZM77.2083 44.641C77.6628 44.641 78.0478 44.5188 78.3631 44.2745C78.6784 44.0302 78.9171 43.7049 79.079 43.2987C79.2438 42.8924 79.3262 42.445 79.3262 41.9563C79.3262 41.4677 79.2438 41.0188 79.079 40.6097C78.9171 40.2006 78.6784 39.8725 78.3631 39.6254C78.0478 39.3782 77.6628 39.2546 77.2083 39.2546C76.7566 39.2546 76.3716 39.3782 76.0534 39.6254C75.7381 39.8725 75.498 40.2006 75.3333 40.6097C75.1713 41.0188 75.0904 41.4677 75.0904 41.9563C75.0904 42.445 75.1713 42.8924 75.3333 43.2987C75.498 43.7049 75.7381 44.0302 76.0534 44.2745C76.3688 44.5188 76.7537 44.641 77.2083 44.641ZM84.0112 47.7901C83.5652 47.7901 83.1746 47.7319 82.8394 47.6154C82.5041 47.5018 82.2215 47.3455 81.9914 47.1467C81.7612 46.9478 81.5823 46.7248 81.4544 46.4776L82.0766 46.0685C82.1703 46.2333 82.2953 46.3952 82.4516 46.5543C82.6107 46.7134 82.8166 46.8455 83.0695 46.9506C83.3252 47.0558 83.6391 47.1083 84.0112 47.1083C84.5908 47.1083 85.0581 46.9634 85.4132 46.6737C85.7712 46.3839 85.9502 45.9336 85.9502 45.3228V43.8484H85.882C85.7939 44.0472 85.6675 44.2461 85.5027 44.445C85.3379 44.641 85.122 44.8043 84.855 44.935C84.5908 45.0657 84.2627 45.131 83.8706 45.131C83.3479 45.131 82.8834 45.0018 82.4771 44.7433C82.0737 44.4847 81.7556 44.1154 81.5226 43.6353C81.2925 43.1523 81.1774 42.5771 81.1774 41.9094C81.1774 41.2475 81.2896 40.6651 81.5141 40.1623C81.7414 39.6594 82.0581 39.2674 82.4644 38.9862C82.8706 38.7049 83.3436 38.5643 83.8834 38.5643C84.284 38.5643 84.6164 38.6353 84.8806 38.7773C85.1448 38.9165 85.3564 39.0898 85.5155 39.2972C85.6774 39.5046 85.8039 39.7063 85.8948 39.9023H85.9715V38.6538H86.7129V45.3697C86.7129 45.9237 86.595 46.3796 86.3592 46.7376C86.1235 47.0955 85.8024 47.3597 85.3962 47.5302C84.9899 47.7035 84.5283 47.7901 84.0112 47.7901ZM83.9601 44.4364C84.3806 44.4364 84.7399 44.3356 85.0382 44.1339C85.3365 43.9293 85.5652 43.6367 85.7243 43.256C85.8834 42.8754 85.9629 42.4222 85.9629 41.8967C85.9629 41.3853 85.8848 40.9322 85.7286 40.5373C85.5723 40.1396 85.345 39.8271 85.0467 39.5998C84.7513 39.3697 84.3891 39.2546 83.9601 39.2546C83.5226 39.2546 83.1533 39.3725 82.8521 39.6083C82.551 39.8441 82.3237 40.1623 82.1703 40.5629C82.0169 40.9606 81.9402 41.4052 81.9402 41.8967C81.9402 42.3967 82.0183 42.8384 82.1746 43.2219C82.3308 43.6026 82.5595 43.9009 82.8607 44.1168C83.1618 44.3299 83.5283 44.4364 83.9601 44.4364ZM88.4811 45.1992V38.6538H89.2183V39.6594H89.2737C89.4044 39.3299 89.6317 39.0643 89.9555 38.8626C90.2822 38.658 90.6516 38.5558 91.0635 38.5558C91.126 38.5558 91.1956 38.5572 91.2723 38.56C91.349 38.5629 91.4129 38.5657 91.4641 38.5685V39.3398C91.43 39.3342 91.3703 39.3256 91.2851 39.3143C91.1999 39.3029 91.1075 39.2972 91.0081 39.2972C90.6672 39.2972 90.3632 39.3697 90.0962 39.5146C89.832 39.6566 89.6232 39.854 89.4697 40.1069C89.3163 40.3597 89.2396 40.6481 89.2396 40.9719V45.1992H88.4811ZM94.3466 45.3484C93.9517 45.3484 93.5909 45.2717 93.2642 45.1183C92.9375 44.962 92.6775 44.7376 92.4844 44.445C92.2912 44.1495 92.1946 43.7915 92.1946 43.3711C92.1946 43.0472 92.2557 42.7745 92.3778 42.5529C92.5 42.3313 92.6733 42.1495 92.8977 42.0075C93.1221 41.8654 93.3878 41.7532 93.6946 41.6708C94.0014 41.5884 94.3395 41.5245 94.7088 41.479C95.0753 41.4336 95.3849 41.3938 95.6378 41.3597C95.8934 41.3256 96.0881 41.2717 96.2216 41.1978C96.3551 41.1239 96.4219 41.0046 96.4219 40.8398V40.6864C96.4219 40.2404 96.2883 39.8896 96.0213 39.6339C95.7571 39.3754 95.3764 39.2461 94.8792 39.2461C94.4077 39.2461 94.0227 39.3498 93.7244 39.5572C93.429 39.7646 93.2216 40.0089 93.1023 40.2901L92.3821 40.0302C92.5298 39.6722 92.7344 39.3867 92.9957 39.1737C93.2571 38.9577 93.5497 38.8029 93.8736 38.7092C94.1974 38.6126 94.5256 38.5643 94.8579 38.5643C95.1079 38.5643 95.3679 38.5969 95.6378 38.6623C95.9105 38.7276 96.1633 38.8413 96.3963 39.0032C96.6292 39.1623 96.8182 39.3853 96.9631 39.6722C97.1079 39.9563 97.1804 40.3171 97.1804 40.7546V45.1992H96.4219V44.1637H96.375C96.2841 44.3569 96.1491 44.5444 95.9702 44.7262C95.7912 44.908 95.5667 45.0572 95.2969 45.1737C95.027 45.2901 94.7102 45.3484 94.3466 45.3484ZM94.4488 44.6538C94.8523 44.6538 95.2017 44.5643 95.4971 44.3853C95.7926 44.2063 96.0199 43.9691 96.179 43.6737C96.3409 43.3754 96.4219 43.0472 96.4219 42.6893V41.7433C96.365 41.7972 96.2699 41.8455 96.1363 41.8881C96.0057 41.9308 95.8537 41.9691 95.6804 42.0032C95.5099 42.0344 95.3395 42.0614 95.169 42.0842C94.9986 42.1069 94.8452 42.1268 94.7088 42.1438C94.3395 42.1893 94.0241 42.2603 93.7628 42.3569C93.5014 42.4535 93.3011 42.587 93.1619 42.7575C93.0227 42.9251 92.9531 43.141 92.9531 43.4052C92.9531 43.8029 93.0952 44.1112 93.3792 44.3299C93.6633 44.5458 94.0199 44.6538 94.4488 44.6538ZM98.9581 45.1992V38.6538H99.6954V39.6594H99.7635C99.8942 39.3214 100.112 39.0558 100.416 38.8626C100.722 38.6665 101.09 38.5685 101.519 38.5685C101.971 38.5685 102.342 38.6751 102.631 38.8881C102.924 39.0984 103.143 39.3881 103.288 39.7575H103.343C103.491 39.3938 103.731 39.1055 104.063 38.8924C104.398 38.6765 104.805 38.5685 105.282 38.5685C105.89 38.5685 106.37 38.7603 106.722 39.1438C107.075 39.5245 107.251 40.0813 107.251 40.8143V45.1992H106.492V40.8143C106.492 40.2972 106.36 39.9094 106.096 39.6509C105.832 39.3924 105.484 39.2631 105.052 39.2631C104.552 39.2631 104.167 39.4165 103.897 39.7234C103.627 40.0302 103.492 40.4194 103.492 40.891V45.1992H102.717V40.7461C102.717 40.3029 102.593 39.945 102.346 39.6722C102.099 39.3995 101.751 39.2631 101.302 39.2631C101.001 39.2631 100.729 39.337 100.488 39.4847C100.249 39.6325 100.06 39.8384 99.9212 40.1026C99.7848 40.364 99.7167 40.6651 99.7167 41.006V45.1992H98.9581Z" fill="#A3ACBA"/>
</svg>
